# xmcd CD database file
#
# Track frame offsets:
#	150
#	46165
#	74524
#	99572
#	134876
#	162839
#
# Disc length: 2540 seconds
#
# Revision: 0
# Processed by: cddbd v1.5.2PL0 Copyright (c) Steve Scherf et al.
# Submitted via: CDex 1.70beta3
#
DISCID=5409ea06
DTITLE=Ueno Yoshimi and His Best Friends - 太古の海鳴り
DYEAR=1900
DGENRE=Jazz
TTITLE0=海鳴り
TTITLE1=土人形
TTITLE2=マイ・スピリット
TTITLE3=スキップ
TTITLE4=Kブルース
TTITLE5=うずしお
EXTD=
EXTT0=
EXTT1=
EXTT2=
EXTT3=
EXTT4=
EXTT5=
PLAYORDER=
